<svg xmlns="http://www.w3.org/2000/svg" width="79" height="77" viewBox="0 0 79 77"><path fill="#191919" fill-rule="evenodd" d="M78.874 35.708c0-4.157-1.519-6.795-6.077-6.795-3.237 0-5.117 1.12-6.877 3.68h-.078v-3.082h-9.395v3.2h1.638c1.161 0 1.44.6 1.44 1.718v5.951h.002v3.204c0 2.127-.443 3.634-1.438 4.64h10.47v-3.199h-.961c-1.159 0-1.436-.602-1.436-1.721v-7.397c0-1.678 1.158-3.395 2.993-3.395 2.722 0 3.083 1.599 3.083 3.918v6.874c0 1.119-.281 1.721-1.44 1.721h-.839v3.199h8.911l.004-12.516zm-4.867-8.048h.038v-3.199h-1.53v-.001c-1.158 0-1.439-.601-1.439-1.72V.475h-.031V.473h-9.713v3.199h.029v.001h1.631c1.14.009 1.417.605 1.417 1.718v5.556l-.06.064c-.847-1.749-3.076-2.662-5.467-2.662h-.029c-5.819 0-7.695 4.718-7.823 9.429-.528-5.493-4.078-9.429-10.077-9.429-3.748 0-6.92 1.625-8.665 4.481-.041-2.597-2.096-4.481-4.549-4.481-2.36 0-3.878 1.88-4.678 3.797h-.079V8.907h-6.358V22.74c0 1.119-.278 1.72-1.438 1.72h-3.293c-1.159 0-1.44-.601-1.44-1.72V12.626h4.681V8.907h-4.681V6.272c0-1.643.2-3.279 2.08-3.279.507 0 .979.114 1.448.193-.957.354-1.639 1.227-1.639 2.253 0 .707.349 1.399.896 1.836.954.76 2.348.742 3.347.074a2.94 2.94 0 0 0 .708-.668c.521-.704.72-1.597.62-2.46a3.567 3.567 0 0 0-.357-1.188 3.39 3.39 0 0 0-.596-.839 4.669 4.669 0 0 0-1.136-.847c-.644-.334-1.372-.579-2.075-.748-.782-.19-1.575-.245-2.375-.245-5.116 0-7.555 2.439-7.555 8.115v.438H.86v3.719h2.959V22.74c0 1.119-.281 1.72-1.44 1.72H.66v3.198h25.681V24.46H24.7c-1.16 0-1.44-.601-1.44-1.72v-7.158c0-1.957 1.36-4.635 3.437-4.635.478 0 .821.05 1.181.363-1.187.331-2.052 1.323-2.052 2.508 0 1.127.84 2.157 1.906 2.477.618.186 1.355.247 1.985.098.278-.066.546-.175.79-.32.148-.087.617-.336.659-.512a11.6 11.6 0 0 0-.327 2.741c0 6.158 3.277 9.956 10.114 9.956 4.317 0 8.994-2.079 9.633-6.877h-4.637c-.36 2.358-2.638 3.439-4.039 3.439-3.354 0-3.996-2.799-3.996-5.597h13.124c.22 4.575 2.155 9.038 7.815 9.038.322 0 .637-.018.944-.055 2.137-.233 3.862-1.325 4.881-3.464h.053v2.918h1.024l8.257.011-.005-.011zM44.03 16.025h-6.036v-1.041c0-2.038 1.079-3.44 3.038-3.44 1.919 0 2.998 1.402 2.998 3.44v1.041zm17.229-4.238c2.233.007 3.15 2.444 3.15 6.357 0 3.671-.805 6.079-2.75 6.367a2.702 2.702 0 0 1-.377.025c-2.237 0-3.16-2.477-3.16-6.394 0-3.902.916-6.337 3.137-6.355zM3.093 34.445v8.873c0 1.051-.256 1.635-1.244 1.707H0v3.203l11.806.007v-3.199h-.64c-1.157 0-1.438-.359-1.438-.917v-7.996c0-1.877.718-3.598 2.878-3.598 2.279 0 2.52 1.44 2.52 3.436v7.357c0 1.237-.281 1.718-1.44 1.718h-.561v3.199H23.72v-3.199h-.521c-1.239 0-1.44-.158-1.44-.917v-8.595c0-1.761.721-2.999 2.88-2.999 1.838 0 2.517 2.038 2.517 3.436v7.357c0 1.121-.278 1.718-1.44 1.718h-.597v3.199h10.608c-1.348-1.181-1.828-2.852-1.908-4.438a4.411 4.411 0 0 1-.027-.479v-8.514c0-3.757-1.959-5.874-6.075-5.874-2.64 0-4.917 1.358-6.317 3.554-.921-2.398-2.918-3.554-5.435-3.554-2.958 0-5.077 1.316-6.557 3.797h-.079v-3.2H.558v3.2h1.095c1.159 0 1.44.596 1.44 1.718zm9.828 29.886c0 1.76-2.237 1.76-3.396 1.76-1.119 0-2.4-.441-3.437-1.159-1.04-.761-1.84-1.8-2-2.959H.675v6.731h3.132l.599-1.216c2.077 1.44 4.558 1.802 7.036 1.802 4.119 0 8.556-1.679 8.556-6.521 0-7.79-12.393-5.192-12.393-8.631 0-1.359 2.16-1.563 3.079-1.563 1.16 0 2.237.245 3.156.803.921.557 1.641 1.319 2.039 2.477h3.038V49.86H16.16l-.479 1.199c-1.841-1.038-4.079-2.053-6.198-2.053-3.998 0-8.955 1.894-8.955 6.691 0 7.316 12.393 5.276 12.393 8.634zm42.9-22.947v.919c0 2.239-.441 2.761-1.32 2.761-.64 0-.763-.44-.763-1.601v-7.432c0-5.838-2.953-7.118-8.43-7.118-3.241 0-9.276.64-9.276 5.08 0 1.878 1.6 2.959 3.478 2.959 1.599 0 3.157-.763 3.157-2.523 0-1.401-1.316-2.038-2.517-2.198v-.079c.959-.601 2.079-.76 3.157-.76 2.201 0 3.877.877 3.877 3.517 0 5.237-11.87.799-11.87 8.355 0 4.079 2.358 5.558 6.155 5.558 2.598 0 4.519-.881 6.158-2.841.638 1.921 2.516 2.841 4.434 2.841 4.439 0 5.96-1.241 5.96-5.238v-2.2h-2.2zm-8.715.32c0 1.679-.598 3.36-2.881 3.36-1.238 0-2.279-.601-2.279-2.238 0-2.48 3.24-2.722 5.16-3.839v2.717zM18.26 68.69h11.894v-3.198h-.641c-1.159 0-1.439-.361-1.439-1.721v-.718l3.037-2.559 2.161 3.598c.2.319.32.6.32.881 0 .317-.163.519-.799.519h-1.122v3.198h12.113v-3.198h-.999c-.88 0-1.398-.281-1.878-1.041l-4.919-7.915 4.337-3.364c.127-.083.255-.161.398-.221a2.592 2.592 0 0 1 3.318 1.163c.238.412.454.935.703 1.544l6.165 13.896c-.269.807-.554 1.61-.966 2.357-.7 1.281-1.814 2.625-3.411 2.625-.55 0-.989-.183-1.357-.623 1.543-.33 2.314-1.213 2.314-2.61 0-.366-.092-.789-.241-1.123-.252-.549-.917-1.089-1.466-1.309-2.198-.878-4.984.879-4.984 3.279 0 2.902 2.242 4.85 5.885 4.85 3.677 0 6.651-2.901 8.408-7.236l5.972-14.562c.446-1.088.809-2.014 2.381-2.014h.766v-3.229h-8.997v3.229h1.169c.434 0 .733.065.925.179a.514.514 0 0 1 .268.452c0 .278-.083.678-.242 1.08l-2.839 7.275h-.078l-3.281-7.396c-.154-.361-.239-.601-.239-.843 0-.638.438-.757 1.319-.757h1.32l-.004-3.199H30.834v3.199h1.997c.48 0 .878.119.878.441 0 .16-.117.598-.637.997l-4.998 3.999v-8.636h-6.635v12.732l-.004.019v.039c0 2.838-1.295 4.739-3.175 5.921z"/></svg>