<svg id="Ebene_1" xmlns="http://www.w3.org/2000/svg" viewBox="0 0 792 240"><defs><style>.cls-1{fill:#1d1d1b;}.cls-2{fill:#39beed;}</style></defs><path class="cls-1" d="M120.49,135.8c.23-.16,.47-.31,.72-.43,.58-.4,1.33-.81,2.29-1.09,.01,0,.06-.02,.13-.04,.69-.19,1.25-.05,2.33-.08-.13-.16-.22-.57-.34-.72-.75-.93-1.17-1.99-1.81-3.04-.64-1.04-1.19-2.05-1.65-3.02-.46-.96-.84-1.84-1.14-2.62-.3-.78-.5-1.37-.6-1.77-.1-.4-.16-.82-.18-1.26-.02-.44-.03-.89-.05-1.34-.02-.44-.03-.89-.05-1.34-.02-.44-.07-.85-.16-1.22-.29-1.13-.87-1.95-1.74-2.45-.87-.5-1.86-.6-2.98-.32-.75,.19-1.34,.57-1.78,1.13-.44,.56-.75,1.21-.93,1.94-.18,.74-.26,1.51-.23,2.33,.03,.82,.13,1.59,.32,2.3,.26,1,.73,2.15,1.42,3.43,.69,1.29,1.5,2.65,2.43,4.09,.94,1.43,1.97,2.89,3.1,4.36,.3,.39,.6,.76,.9,1.15Z"/><path class="cls-1" d="M668.96,137.53c0,.52-.09,1.04-.27,1.57s-.39,1.06-.65,1.59-.55,1.05-.88,1.55c-.33,.5-.64,.99-.94,1.45-.79,1.23-1.72,2.47-2.78,3.74-1.06,1.27-2.2,2.5-3.41,3.7-1.21,1.2-2.46,2.33-3.74,3.39s-2.53,2-3.76,2.82c-.98,.65-1.91,1.27-2.8,1.84s-1.78,1.06-2.68,1.47c-.9,.41-1.84,.74-2.82,.98-.98,.25-2.06,.37-3.23,.37-2.26,0-4.1-.57-5.52-1.72-.71-.57-1.33-1.31-1.86-2.23-.53-.91-.99-1.93-1.39-3.04-.39-1.12-.74-2.3-1.02-3.55-.29-1.25-.53-2.49-.72-3.72-.25-1.53-.48-2.89-.69-4.11-.22-1.21-.47-2.23-.76-3.06-.29-.83-.63-1.47-1.04-1.92s-.94-.67-1.59-.67c-.52,0-1.01,.06-1.47,.16-.46,.11-.95,.33-1.45,.65s-1.06,.79-1.65,1.39c-.6,.6-1.3,1.39-2.1,2.37s-1.72,2.18-2.76,3.6c-1.04,1.42-2.25,3.11-3.64,5.07-.68,.95-1.49,2-2.41,3.15s-1.87,2.23-2.84,3.27c-.97,1.04-1.91,1.95-2.84,2.74-.93,.79-1.74,1.29-2.45,1.51-2.4-.52-3.6-3.5-3.6-8.95,0-1.44,.16-3.64,.49-6.58,.16-1.33,.35-2.73,.57-4.19,.22-1.46,.49-2.91,.82-4.37,.33-1.46,.7-2.87,1.12-4.25,.42-1.37,.92-2.65,1.49-3.82,.27-.54,.56-.97,.86-1.29,.3-.31,.61-.54,.92-.69,.31-.15,.64-.25,.98-.29s.69-.06,1.04-.06c.44,0,.82,.3,1.16,.9,.34,.6,.51,1.43,.51,2.49,0,.65-.06,1.27-.16,1.84s-.26,1.16-.45,1.76c-.19,.6-.39,1.25-.61,1.94s-.44,1.49-.65,2.39c-.16,.74-.35,1.55-.55,2.45s-.39,1.81-.57,2.74c-.18,.93-.33,1.83-.45,2.72-.12,.89-.18,1.68-.18,2.39,0,.49,.08,.99,.25,1.51,.76-.08,2.02-1.23,3.76-3.43,.9-1.12,1.89-2.34,2.96-3.68,1.08-1.33,2.24-2.81,3.49-4.41,.93-1.2,1.84-2.31,2.76-3.35,.91-1.03,1.86-1.94,2.84-2.72s2.02-1.39,3.13-1.84,2.32-.67,3.66-.67c1.42,0,2.59,.31,3.53,.92,.94,.61,1.7,1.46,2.27,2.53,.57,1.08,1.02,2.36,1.33,3.86,.31,1.5,.57,3.15,.76,4.94,.16,1.53,.32,3.04,.47,4.54,.15,1.5,.44,2.84,.88,4.02,.44,1.18,1.06,2.15,1.88,2.88,.82,.74,1.99,1.1,3.51,1.1,1.17,0,2.4-.27,3.68-.82,1.28-.54,2.63-1.3,4.05-2.27,1.42-.97,2.88-2.1,4.39-3.41,1.51-1.31,3.07-2.74,4.68-4.29,.63-.6,1.31-1.35,2.06-2.27,.75-.91,1.49-1.79,2.21-2.64,.72-.84,1.4-1.57,2.02-2.17,.63-.6,1.13-.9,1.51-.9,.16,0,.43,.08,.8,.25s.55,.44,.55,.82Z"/><path class="cls-1" d="M698.62,129.24c0,.79-.16,1.4-.47,1.84-.31,.44-.69,.76-1.14,.98-.45,.22-.93,.35-1.45,.41-.52,.06-.98,.1-1.39,.12-2.29,.16-4.62,.35-7.01,.55s-4.56,.41-6.52,.61c-1.96,.2-3.58,.4-4.84,.59-1.27,.19-1.91,.34-1.94,.45-.19,.79-.44,1.77-.74,2.94-.3,1.17-.61,2.43-.94,3.78s-.65,2.74-.98,4.17c-.33,1.43-.62,2.79-.88,4.09-.26,1.29-.47,2.47-.63,3.51-.16,1.05-.25,1.89-.25,2.51,0,.57,.04,1.27,.12,2.08s.28,1.6,.59,2.35c.31,.75,.77,1.38,1.37,1.9,.6,.52,1.42,.78,2.45,.78,.57,0,1.27-.18,2.1-.53,.83-.35,1.74-.84,2.72-1.47,.98-.63,2-1.37,3.06-2.25,1.06-.87,2.11-1.82,3.15-2.86,.52-.52,1.08-1.01,1.7-1.49,.61-.48,1.27-.72,1.98-.72,1.01,0,1.51,.48,1.51,1.43,0,.49-.09,.96-.27,1.41s-.41,.9-.69,1.35-.61,.9-.98,1.35-.76,.92-1.16,1.41c-.27,.35-.67,.81-1.21,1.37-.53,.56-1.17,1.16-1.92,1.82-.75,.65-1.58,1.31-2.49,1.98-.91,.67-1.88,1.27-2.9,1.8-1.02,.53-2.08,.97-3.19,1.31-1.1,.34-2.21,.51-3.33,.51-1.61,0-2.95-.23-4.02-.69-1.08-.46-1.96-1.08-2.64-1.84-.68-.76-1.21-1.63-1.57-2.59-.37-.97-.63-1.94-.8-2.92s-.25-1.94-.27-2.88c-.01-.94-.02-1.75-.02-2.43,0-.84,.09-1.84,.27-3,.18-1.16,.39-2.39,.63-3.7,.25-1.31,.53-2.64,.84-3.98,.31-1.35,.59-2.64,.84-3.86s.46-2.35,.63-3.37c.18-1.02,.27-1.83,.27-2.43,0-.35-.17-.55-.51-.59s-.8-.02-1.37,.06-1.22,.16-1.94,.25c-.72,.08-1.46,.06-2.23-.08-.49-.08-.95-.2-1.39-.37-.44-.16-.82-.39-1.16-.67s-.61-.65-.82-1.1-.31-1.01-.31-1.7c0-.84,.22-1.43,.67-1.76s.99-.49,1.61-.49h9.6c.16-.08,.37-.36,.63-.84,.26-.48,.55-1.09,.86-1.84,.31-.75,.65-1.59,1-2.53s.72-1.92,1.08-2.94,.72-2.05,1.06-3.08c.34-1.03,.66-2,.96-2.9,.46-1.47,1.01-2.52,1.63-3.15,.63-.63,1.42-.94,2.37-.94,.63,0,1.15,.12,1.57,.35,.42,.23,.76,.52,1,.86,.25,.34,.42,.7,.53,1.08,.11,.38,.16,.74,.16,1.06,0,.11-.09,.43-.27,.96s-.4,1.19-.67,1.98c-.27,.79-.59,1.68-.94,2.66s-.72,1.96-1.08,2.94c-.37,.98-.72,1.93-1.04,2.86-.33,.93-.61,1.73-.86,2.41,2.53-.16,4.68-.33,6.44-.49,1.76-.16,3.26-.31,4.52-.43,1.25-.12,2.32-.22,3.21-.31,.88-.08,1.72-.12,2.51-.12,1.2,0,2.16,.06,2.88,.16,.72,.11,1.28,.27,1.68,.47s.66,.46,.8,.78c.14,.31,.2,.67,.2,1.08Z"/><path class="cls-1" d="M200.07,86.97c1.69,.07,1.98,.68,2.58,1.79,1.95,4.15,4.88,3.34,8.35,1.47,2.88-1.43,5.81-2.75,8.81-3.91,7.99-3.09,16.42-5.22,25-5.69,6.32-.15,14.45-1.03,18.48,5.06,3.6,6.43-1.11,13.31-4.47,18.65-2.33,3.62-4.91,7.02-7.33,10.47l-2.4-1.8c3.98-4.95,7.9-9.87,11.08-15.28,3.22-5.13,3.78-12.18-3.01-14.37-3.82-1.21-8.21-1-12.24-.83-8.34,.53-16.56,2.65-24.28,5.86-4.02,1.62-7.51,3.51-11.46,5.5-2.26,1.17-5.24,2.04-7.84,.77-1.73-.8-2.89-1.98-3.84-3.38-.65-.92-.82-1.65-.08-2.91l2.66-1.39h0Z"/><path class="cls-1" d="M155.62,92c-.26-.38-.68-.38-1.25,0-.48,.32-.9,.75-1.26,1.29-.36,.54-.88,1.3-1.54,2.27-.44,.66-.88,1.33-1.3,2.01-.42,.68-.9,1.35-1.43,2.02-.54,.67-1.15,1.35-1.84,2.02s-1.52,1.34-2.5,2c-.5,.34-1.09,.62-1.77,.84-.68,.22-1.35,.4-2.01,.53-.66,.13-1.27,.23-1.84,.3s-.98,.11-1.24,.12c-.34,.03-.71,.02-1.09-.03-.39-.05-.78-.08-1.17-.07-.4,0-.78,.03-1.16,.09-.38,.06-.72,.19-1.04,.41-.68,.46-1.16,1-1.43,1.63-.27,.63-.37,1.36-.3,2.19,.04,.6,.13,1.26,.26,1.99,.13,.73,.29,1.51,.47,2.33,.18,.82,.37,1.67,.57,2.55,.2,.88,.4,1.75,.59,2.61,.26,1.07,.54,2.25,.82,3.54,.28,1.29,.56,2.59,.83,3.91,.13,.64,.23,1.26,.35,1.89,1.68-.4,3.36-.8,5.03-1.2-.17-1.05-.34-2.11-.54-3.22-.29-1.58-.56-3.1-.81-4.54s-.48-2.72-.68-3.84c-.2-1.12-.35-2.04-.47-2.77-.12-.73-.18-1.18-.21-1.36,.7-.04,1.49-.17,2.38-.39,.88-.21,1.77-.47,2.65-.76,.88-.29,1.72-.63,2.53-1.01,.81-.38,1.49-.76,2.06-1.14,.84-.57,1.69-1.3,2.54-2.2,.85-.9,1.64-1.87,2.36-2.92,.73-1.05,1.37-2.14,1.92-3.28,.55-1.14,.97-2.25,1.26-3.34,.1-.39,.21-.79,.32-1.2,.12-.41,.21-.8,.26-1.19,.05-.38,.06-.75,.02-1.1-.04-.35-.16-.67-.36-.96Z"/><path class="cls-1" d="M190.94,69.2c.26,.38,.41,.89,.44,1.53s0,1.33-.12,2.08c-.12,.75-.3,1.53-.54,2.34-.25,.81-.52,1.58-.81,2.32-.29,.74-.59,1.41-.88,2.02-.3,.61-.56,1.09-.79,1.44-.42,.65-1.05,1.39-1.89,2.23-.84,.84-1.73,1.68-2.69,2.52-.96,.84-1.91,1.63-2.86,2.39-.95,.75-1.76,1.36-2.45,1.82-.27,.18-.68,.39-1.22,.62-.54,.23-1.11,.45-1.7,.65-.6,.2-1.17,.37-1.73,.5-.56,.13-1,.17-1.33,.13,.79,.72,1.56,1.46,2.31,2.22s1.44,1.6,2.08,2.53c.28,.41,.56,.94,.86,1.59,.3,.66,.57,1.34,.8,2.05,.24,.71,.44,1.41,.61,2.1,.17,.69,.27,1.29,.29,1.81,.08,1.39,.09,2.7,.02,3.93-.07,1.23-.27,2.46-.58,3.67-.31,1.21-.76,2.46-1.32,3.72-.56,1.27-1.29,2.61-2.18,4.03-.97,1.5-2.06,2.84-3.27,4-1.22,1.16-2.57,2.24-4.05,3.24-.93,.63-1.95,.91-3.05,.86-1.1-.05-2.21-.37-3.34-.94-1.12-.58-2.22-1.37-3.3-2.39-1.08-1.02-2.06-2.18-2.96-3.49-.23-.34-.49-.77-.77-1.31-.28-.53-.55-1.1-.8-1.68-.25-.59-.48-1.16-.69-1.7-.21-.55-.37-1.03-.49-1.45-.33-1.16-.61-2.55-.85-4.16-.24-1.62-.4-3.33-.47-5.14-.07-1.81-.04-3.66,.1-5.54,.14-1.89,.41-3.67,.82-5.36,.41-1.69,.99-3.21,1.76-4.58,.76-1.37,1.72-2.44,2.88-3.22,.39-.26,.74-.41,1.06-.46,.32-.05,.62-.04,.91,.03,.29,.07,.58,.16,.85,.27,.27,.11,.57,.21,.89,.29,.15,.07,.29,.06,.42-.04,.18-.12,.38-.32,.59-.6,.21-.27,.49-.53,.83-.75,.43-.29,1.16-.37,2.17-.25,1.02,.13,2.1,.29,3.25,.49,1.15,.2,2.26,.34,3.33,.43,1.07,.09,1.88-.05,2.43-.42,.62-.41,1.27-.87,1.96-1.36,.69-.49,1.38-1.02,2.07-1.56,.69-.55,1.36-1.1,2-1.66,.64-.56,1.22-1.1,1.74-1.61,.13-.15,.43-.51,.92-1.06,.48-.56,1.04-1.21,1.69-1.95,.64-.74,1.31-1.53,2.02-2.37,.71-.83,1.36-1.61,1.97-2.33,.61-.72,1.11-1.31,1.5-1.77,.4-.46,.62-.71,.66-.74,.14-.09,.28-.14,.44-.15,.16,0,.3,.08,.43,.26Zm-22.96,23.3c-.44-.36-1.01-.62-1.7-.78s-1.41-.24-2.15-.23-1.47,.09-2.19,.26c-.72,.17-1.32,.42-1.83,.76-.41,.28-.76,.61-1.06,1.01-.29,.4-.56,.83-.79,1.29-.23,.47-.43,.95-.59,1.43-.16,.49-.32,.95-.46,1.37-.38,1.34-.52,2.95-.41,4.84,.11,1.89,.39,3.8,.84,5.75,.45,1.95,1.02,3.81,1.7,5.59,.68,1.78,1.41,3.23,2.18,4.36,.34,.5,.75,.92,1.24,1.26,.49,.35,1.01,.59,1.57,.72,.56,.14,1.12,.17,1.7,.09,.58-.07,1.13-.29,1.66-.64,1.36-.92,2.46-2.01,3.29-3.27,.83-1.26,1.43-2.64,1.8-4.12,.37-1.48,.52-3.05,.44-4.71-.07-1.66-.32-3.34-.75-5.04-.43-1.7-1.03-3.39-1.8-5.08-.77-1.69-1.67-3.3-2.69-4.85Z"/><path class="cls-1" d="M192.4,67.28c-.63-.1-1.13,.02-1.52,.11-.56,.13-1.16,.41-1.8,.84-.52,.35-.85,.8-.99,1.36-.14,.55-.15,1.13-.03,1.75,.12,.61,.32,1.21,.61,1.81,.29,.59,.58,1.11,.87,1.54,.25,.36,.64,1.2,1.17,2.52,.53,1.32,1.19,2.86,1.96,4.63,.77,1.77,1.65,3.62,2.63,5.56,.21,.41,2.97,5.31,3.15,5.19,.03-.02,.02,0,.32-.21,.31-.21,1.09-.73,2.22-1.39,.15-.08,.28-.15,.54-.29,.76-.4,1.39-.71,1.82-.92h.02s-.08,.04-.02,0c-.26,.16-4.08-7.74-4.44-8.63-.78-1.89-1.43-3.68-1.97-5.36-.53-1.68-1-3.19-1.39-4.52-.35-1.18-.43-2.19-1.28-3.01-.2-.19-.85-.8-1.88-.96Z"/><path class="cls-1" d="M181.54,52.65c.24,.21,.48,.38,.69,.5,.21,.12,.41,.23,.59,.32,.18,.09,.36,.22,.55,.4l.89,.93c.16,.19,.33,.39,.51,.6,.18,.21,.36,.39,.54,.53,.18,.14,.37,.23,.56,.27,.19,.04,.39-.02,.59-.15,.27-.18,.59-.48,.94-.88s.68-.85,.97-1.35,.53-1,.7-1.53c.17-.53,.22-1.01,.15-1.46-.07-.44-.18-.97-.33-1.58-.15-.61-.32-1.21-.51-1.8-.19-.59-.39-1.14-.59-1.63-.2-.49-.38-.85-.53-1.07-.15-.22-.44-.37-.87-.43-.42-.06-.87-.07-1.34-.04-.47,.04-.93,.11-1.36,.23-.44,.11-.74,.22-.9,.33-.66,.44-1.18,.98-1.56,1.62-.38,.64-.65,1.27-.8,1.92-.16,.65-.2,1.27-.14,1.87,.06,.6,.22,1.08,.46,1.44,.29,.43,.56,.75,.81,.96Z"/><g><path class="cls-1" d="M393.7,133.72c-.14,1-.54,1.72-1.18,2.16-.64,.44-1.39,.86-2.17,1.11-.94,.3-2.11,.47-3.32,.62-1.21,.14-2.44,.25-3.7,.31-1.26,.06-2.52,.08-3.78,.04-1.26-.03-2.46-.09-3.59-.18-1.22-.1-2.51-.22-3.88-.35-1.36-.14-2.68-.26-3.97-.38-1.28-.12-2.47-.2-3.58-.25-1.1-.05-2.01-.02-2.71,.09-1.08,2.31-2.19,4.5-3.31,6.57-1.12,2.06-2.15,4.14-3.07,6.23-.22,.48-.53,1.21-.93,2.19-.4,.97-.8,2-1.21,3.07-.41,1.07-.78,2.08-1.11,3.02-.34,.95-.55,1.63-.64,2.06-.23,1.09-.2,1.96,.07,2.58,.28,.63,.61,1.16,1.01,1.58,.4,.43,.76,.83,1.09,1.2,.33,.37,.44,.85,.32,1.44-.08,.37-.35,.69-.83,.96-.48,.26-1.03,.47-1.66,.62-.63,.15-1.28,.23-1.96,.24-.68,.01-1.26-.04-1.75-.14-.88-.19-1.62-.57-2.22-1.14-.6-.58-1.07-1.26-1.4-2.04-.33-.78-.54-1.64-.61-2.58-.08-.94-.01-1.87,.2-2.8,.27-1.22,.68-2.51,1.23-3.85,.55-1.34,1.16-2.71,1.83-4.1,.67-1.39,1.37-2.8,2.1-4.25,.73-1.44,1.43-2.89,2.1-4.33,.28-.61,.58-1.23,.88-1.88,.3-.64,.59-1.25,.84-1.83,.26-.57,.47-1.05,.64-1.43,.17-.38,.27-.61,.28-.69,.09-.43,0-.79-.29-1.08-.28-.3-.65-.49-1.11-.59-.34-.07-.86-.16-1.56-.26-.7-.1-1.43-.19-2.21-.28-.78-.09-1.51-.18-2.21-.29-.7-.1-1.2-.19-1.52-.26-1.03-.24-1.89-.5-2.57-.78-.69-.29-1.21-.64-1.58-1.06-.37-.42-.59-.94-.66-1.57-.08-.62,0-1.38,.21-2.28,.09-.37,.34-.62,.76-.74,.42-.12,.9-.17,1.44-.14,.54,.03,1.11,.11,1.71,.23,.6,.13,1.12,.24,1.57,.34,.37,.08,.98,.19,1.82,.31,.85,.12,1.74,.25,2.68,.37,.94,.12,1.83,.24,2.68,.36,.85,.12,1.46,.21,1.83,.29,.17,.04,.37,.07,.6,.09,.23,.02,.48,0,.75-.07,.27-.07,.53-.22,.78-.46,.26-.24,.52-.6,.76-1.07,.38-.76,.81-1.7,1.32-2.75,.51-1.05,1.03-2.12,1.56-3.22,.53-1.1,1.05-2.16,1.55-3.19,.5-1.02,.91-1.95,1.27-2.64,.36-.68,.78-1.46,1.13-2.27,.35-.82,.69-1.64,1.01-2.46,.32-.82,.66-1.62,1.01-2.38,.35-.76,.74-1.45,1.17-2.06,.87-1.27,1.97-1.78,3.29-1.52,2,.39,2.8,1.67,2.39,3.86-.26,1.37-.85,2.88-1.79,4.53-2.09,3.82-3.72,6.98-4.88,9.49-1.16,2.51-1.83,4.22-2.01,5.12-.19,.99,.24,1.59,1.28,1.79,1.27,.25,2.48,.45,3.6,.62,1.13,.17,2.27,.31,3.44,.42,1.16,.11,2.4,.22,3.7,.3,1.3,.09,2.77,.2,4.37,.29,1.15,.06,2.27,.07,3.33,.05,1.07-.02,2.05-.05,2.96-.09,.91-.04,1.71-.09,2.42-.15s1.3-.09,1.75-.07c.31,.01,.63,.02,.93,.01,.31-.01,.56,.02,.77,.09,.21,.07,.36,.2,.46,.4,.1,.19,.12,.49,.07,.9Z"/><path class="cls-1" d="M389.12,131.18c.48-.51,1.05-1,1.7-1.5,.65-.49,1.32-.93,2.01-1.31,.69-.38,1.34-.68,1.96-.89,.62-.21,1.12-.29,1.52-.24,.42,.06,.81,.2,1.17,.41s.66,.48,.92,.79c.26,.31,.46,.65,.59,1.01,.14,.36,.18,.72,.14,1.07-.09,.68-.37,1.31-.84,1.91s-1.04,1.17-1.71,1.71c-.67,.54-1.38,1.05-2.15,1.54-.77,.48-1.49,.95-2.17,1.4-.68,.45-1.25,.89-1.7,1.3-.46,.41-.73,.82-.82,1.22,.3,.95,.76,1.9,1.39,2.83,.63,.93,1.37,1.86,2.24,2.78,.86,.92,1.8,1.85,2.81,2.78,1.01,.93,2.07,1.88,3.16,2.85,.61,.55,1.13,1.09,1.56,1.62,.42,.53,.79,1.01,1.1,1.43,.31,.42,.55,.77,.75,1.04s.36,.41,.51,.43c.21,.02,.54-.05,.99-.23,.45-.18,.98-.43,1.57-.76,.59-.33,1.25-.72,1.99-1.19,.74-.46,1.49-.97,2.26-1.51,1.86-1.27,3.73-2.68,5.62-4.23,1.89-1.55,3.63-3.01,5.24-4.38,1.61-1.37,3.01-2.51,4.19-3.42,1.19-.91,2.02-1.35,2.51-1.31,.32,.03,.55,.11,.71,.24s.27,.3,.33,.5c.06,.2,.08,.42,.08,.66,0,.25-.02,.48-.03,.69-.02,.3-.29,.8-.79,1.49-.51,.7-1.16,1.5-1.96,2.42-.8,.92-1.72,1.9-2.75,2.94-1.03,1.04-2.08,2.07-3.14,3.08-1.07,1.01-2.1,1.94-3.1,2.8-1,.86-1.89,1.56-2.66,2.11-.87,.62-1.66,1.19-2.39,1.7-.73,.51-1.48,1.05-2.26,1.61-.78,.56-1.65,1.17-2.62,1.85s-2.12,1.48-3.47,2.41c-1.09,.75-2.11,1.51-3.08,2.3-.96,.79-1.93,1.56-2.9,2.33-.97,.77-1.96,1.53-2.97,2.29-1.01,.76-2.08,1.49-3.23,2.18-1.88,1.11-3.66,2.01-5.33,2.69-1.67,.68-3.27,.9-4.8,.67-1.28-.2-2.32-.58-3.1-1.15-.78-.57-1.11-1.24-.99-2.02,.13-.81,.6-1.5,1.41-2.09,.81-.59,1.77-1.12,2.9-1.59s2.33-.91,3.62-1.31c1.29-.4,2.5-.81,3.63-1.22,2.33-.85,4.11-1.92,5.34-3.19,1.24-1.28,1.94-2.63,2.13-4.06,.14-1.03-.37-2.27-1.5-3.75-1.13-1.47-3.1-3.31-5.88-5.54-.88-.71-1.66-1.47-2.34-2.27-.68-.81-1.23-1.59-1.66-2.36-.43-.77-.74-1.5-.94-2.2-.2-.69-.26-1.28-.19-1.77,.16-.99,.36-1.87,.59-2.64,.24-.76,.57-1.5,.99-2.22,.42-.72,.94-1.45,1.57-2.2,.62-.74,1.38-1.58,2.28-2.52Z"/><path class="cls-1" d="M487.94,143.89c.02,.84-.26,1.86-.84,3.04-.14,.3-.38,.63-.74,.98-.36,.35-.73,.69-1.11,1.02-.39,.33-.77,.63-1.14,.9-.37,.27-.65,.47-.82,.61-.95,.75-2.18,1.59-3.7,2.52-1.51,.93-3.2,1.9-5.07,2.93-1.87,1.02-3.86,2.05-5.97,3.08-2.11,1.03-4.23,2.03-6.37,2.99-2.13,.97-4.22,1.87-6.24,2.7s-3.89,1.56-5.56,2.18c-1.22,.44-2.38,.94-3.49,1.51-1.11,.56-2.2,1.08-3.27,1.56-1.07,.48-2.14,.86-3.22,1.16-1.08,.29-2.21,.41-3.39,.33-.7-.04-1.36-.16-2-.35-.64-.19-1.2-.47-1.7-.83-.49-.36-.88-.8-1.16-1.33-.28-.52-.4-1.14-.35-1.85,.03-.38,.19-.72,.5-1.03,.31-.31,.69-.57,1.16-.8,.47-.23,.98-.43,1.53-.61,.55-.18,1.1-.33,1.61-.47,.54-.15,1.2-.31,1.94-.47,.74-.16,1.49-.32,2.25-.48s1.49-.33,2.2-.51c.71-.18,1.32-.37,1.84-.56,.98-.41,1.9-.96,2.76-1.63,.86-.67,1.67-1.41,2.41-2.23,.74-.81,1.44-1.67,2.09-2.55,.65-.89,1.26-1.75,1.81-2.57,.37-.56,.73-1.19,1.07-1.89,.35-.7,.65-1.4,.92-2.1,.27-.7,.48-1.37,.63-2,.15-.64,.23-1.17,.24-1.61,.06-1.88-.33-3.39-1.16-4.53-.82-1.14-1.88-1.74-3.16-1.79-.8-.03-1.73,.18-2.8,.64-1.07,.46-2.14,1.02-3.22,1.67-1.08,.66-2.1,1.35-3.05,2.07-.95,.73-1.72,1.34-2.3,1.86-1.41,1.26-2.75,2.63-4.03,4.11-1.28,1.49-2.51,3.02-3.68,4.59-1.17,1.57-2.29,3.15-3.37,4.73-1.07,1.59-2.32,3.18-3,4.56-.53,1.06-.93,2.63-1.4,4.15-.47,1.52-.88,3.2-1.21,5.03-.65,3.62-1.16,6.89-1.57,9.75-.41,2.86-.98,5.47-1.72,7.81-.26,.85-.78,1.58-1.56,2.18-.78,.6-1.75,.85-2.91,.74-.35-.03-.75-.15-1.2-.34-.46-.19-.88-.45-1.28-.76-.4-.31-.73-.65-.99-1.02-.26-.37-.37-.76-.33-1.16,.09-.89,.27-1.99,.54-3.29,.27-1.3,.56-2.61,.88-3.92,.32-1.31,.61-2.5,.88-3.57,.27-1.07,.46-1.82,.56-2.24,.7-2.75,1.36-5.73,2-8.94,.64-3.21,1.28-6.75,1.8-10.52,.11-.8,.24-1.89,.41-3.22,.17-1.34,.34-2.69,.51-4.06,.17-1.36,.33-2.64,.49-3.81,.15-1.18,.28-2.01,.38-2.49,.88-5.14,2.54-7.6,4.99-7.39,.48,.04,.94,.2,1.36,.46,.42,.27,.79,.6,1.1,.99,.31,.39,.55,.83,.72,1.31,.16,.48,.23,.93,.2,1.37-.07,.95-.26,1.97-.56,3.05-.3,1.08-.63,2.19-.98,3.32-.35,1.13-.68,2.25-.99,3.34-.31,1.1-.5,2.11-.58,3.03-.06,.79,0,1.19,.17,1.2,2.33-3.25,4.56-6.11,6.68-8.57,2.12-2.46,4.19-4.48,6.21-6.08,1.3-1.01,2.57-1.94,3.81-2.79,1.25-.85,2.49-1.57,3.73-2.18,1.24-.61,2.51-1.07,3.81-1.38,1.3-.31,2.68-.45,4.12-.44,.99,.01,2.01,.27,3.06,.79,1.05,.52,1.99,1.28,2.82,2.28s1.51,2.21,2.04,3.62c.53,1.41,.74,3.04,.71,4.77-.02,1.34-.24,2.72-.75,4.07-.51,1.35-1.17,2.68-2.01,3.98-.84,1.3-1.8,2.55-2.89,3.75-1.09,1.2-2.24,2.29-3.43,3.29,2.46-.76,4.98-1.73,7.55-2.9,2.57-1.17,5.14-2.46,7.68-3.86,2.54-1.4,5.03-2.87,7.44-4.41,2.42-1.54,4.71-3.05,6.87-4.53,.66-.45,1.18-.82,1.58-1.13,.4-.31,.84-.47,1.33-.48,.4,0,.64,.17,.72,.53,.08,.37,.13,.74,.14,1.12Z"/><path class="cls-1" d="M539.65,139.06c.11,.92-.06,1.93-.5,3.04-.44,1.11-.96,2.13-1.56,3.07-1.57,2.5-3.26,4.81-5.08,6.92-1.81,2.11-3.69,4.12-5.6,6.01-2,1.98-4.04,3.57-6.13,4.74-2.08,1.18-4,1.82-5.73,1.94-.75,.05-1.5-.06-2.25-.34-.75-.28-1.47-.66-2.14-1.15-.67-.49-1.28-1.07-1.81-1.75-.53-.68-.95-1.39-1.26-2.14-.17-.4-.33-.86-.48-1.38-.15-.52-.29-1.01-.44-1.45-.14-.44-.3-.82-.46-1.12-.17-.3-.33-.45-.51-.44-.12,0-.36,.2-.72,.57-.36,.37-.79,.85-1.28,1.44-.49,.58-1.01,1.24-1.57,1.96-.56,.72-1.11,1.42-1.66,2.1-.55,.68-1.04,1.3-1.48,1.86-.44,.56-.79,.99-1.05,1.27-.89,.99-1.95,2.01-3.19,3.04-1.24,1.04-2.49,1.98-3.75,2.84s-2.42,1.55-3.48,2.09c-1.06,.54-1.85,.82-2.37,.82-1.15,.02-2.27-.13-3.35-.46-1.08-.33-2.03-.81-2.85-1.46-.82-.65-1.48-1.45-1.98-2.4-.5-.95-.75-2.04-.76-3.27,0-2.02,.43-4.32,1.28-6.91,.86-2.59,1.98-5.23,3.37-7.92,1.38-2.69,2.96-5.28,4.72-7.78,1.76-2.5,3.58-4.67,5.46-6.49,2.18-2.11,4.47-3.7,6.87-4.77,2.4-1.07,4.87-1.67,7.43-1.82,.48-.03,.9,.05,1.26,.21,.36,.17,.68,.4,.95,.68,.27,.28,.52,.6,.74,.96,.22,.35,.44,.72,.66,1.08,.13,.24,.39,.49,.77,.77,.39,.28,.79,.56,1.21,.84,.42,.29,.79,.57,1.1,.85,.32,.28,.49,.55,.51,.83,.04,.57-.04,1.21-.23,1.92-.2,.71-.41,1.53-.63,2.46-.23,.93-.43,1.98-.6,3.15-.17,1.17-.21,2.5-.11,4,.06,.98,.23,2.09,.5,3.33,.27,1.24,.64,2.41,1.11,3.51,.47,1.1,1.04,2.01,1.71,2.73,.67,.72,1.42,1.05,2.25,.99,1-.07,1.99-.41,2.95-1.02,.96-.61,2.05-1.44,3.27-2.5,2.7-2.36,5.21-4.93,7.52-7.7,2.31-2.77,4.64-5.55,6.99-8.33,.41-.48,.81-.75,1.21-.79,.66-.07,1.04,.37,1.15,1.35Zm-33.93-1.81c0-.05-.05-.2-.15-.44s-.24-.48-.43-.73c-.18-.25-.4-.47-.66-.66-.25-.19-.52-.28-.8-.26h-.09c-1.04,.17-2.15,.56-3.32,1.17-1.17,.61-2.4,1.53-3.7,2.74-1.3,1.21-2.66,2.75-4.1,4.62-1.44,1.87-2.94,4.14-4.51,6.79-.48,.8-1.01,1.68-1.59,2.63-.58,.95-1.13,2-1.66,3.14-.53,1.14-.96,2.35-1.31,3.64-.35,1.29-.52,2.64-.5,4.05,.01,.84,.36,1.48,1.04,1.9,.68,.42,1.38,.63,2.1,.62,.75-.02,1.72-.41,2.89-1.19,1.18-.78,2.44-1.81,3.79-3.09,1.34-1.28,2.7-2.75,4.08-4.4,1.37-1.65,2.63-3.34,3.76-5.09,1.14-1.74,2.11-3.45,2.91-5.13,.8-1.68,1.32-3.19,1.57-4.54,.06-.41,.14-.9,.22-1.46,.08-.56,.16-1.13,.23-1.69,.07-.56,.13-1.08,.17-1.56,.04-.48,.06-.83,.05-1.05Z"/><path class="cls-1" d="M607.87,128.55c.24,1.01,.25,2.08,0,3.23-.24,1.15-.56,2.26-.98,3.3-.52,1.3-1.21,2.78-2.01,4.43s-1.73,3.35-2.79,5.09c-1.06,1.74-2.24,3.47-3.54,5.19-1.3,1.72-2.71,3.29-4.21,4.71-1.51,1.42-3.1,2.64-4.79,3.65-1.68,1.01-3.42,1.68-5.21,2.02-1.94,.36-3.59,.29-4.95-.21-1.36-.5-2.54-1.28-3.53-2.32-.99-1.04-1.83-2.29-2.51-3.73-.68-1.44-1.35-2.93-1.95-4.46-.74-1.85-1.41-3.44-2.02-4.72-.61-1.28-1.2-2.31-1.76-3.09-.56-.78-1.1-1.32-1.62-1.62-.52-.3-1.04-.41-1.56-.33-1.01,.16-1.99,.74-2.95,1.74-.97,1-1.95,2.3-2.96,3.89-1.01,1.59-2.06,3.4-3.17,5.43-1.1,2.03-2.28,4.12-3.52,6.3-.76,1.31-1.56,2.58-2.4,3.81-.84,1.23-1.68,2.37-2.51,3.4-.83,1.04-1.63,1.93-2.39,2.7-.76,.76-1.45,1.33-2.04,1.7-.68-.06-1.29-.18-1.82-.35-.54-.17-1-.49-1.38-.96-.39-.46-.71-1.11-.98-1.93-.27-.82-.48-1.91-.62-3.26-.11-1.03-.18-2.31-.21-3.84-.03-1.53-.02-3.13,.02-4.79,.04-1.66,.1-3.29,.18-4.87,.08-1.58,.18-2.95,.32-4.08,.09-.75,.15-1.5,.17-2.24s.04-1.44,.07-2.08c.03-.65,.06-1.23,.11-1.74,.04-.51,.13-.94,.27-1.28,.45-1.17,.91-2.14,1.4-2.9s1.1-1.18,1.83-1.27c.23-.03,.54-.04,.92-.03,.39,0,.77,.08,1.15,.21,.38,.13,.72,.34,1.03,.63,.31,.29,.5,.69,.56,1.21,.16,1.3,.13,2.83-.12,4.59-.24,1.76-.49,3.56-.73,5.4-.08,.75-.2,1.61-.35,2.57-.15,.96-.27,1.95-.37,2.95-.1,1-.18,1.98-.23,2.93-.05,.95-.03,1.78,.05,2.48,.01,.11,.03,.28,.04,.53,.01,.25,.03,.5,.05,.78,.02,.27,.04,.53,.07,.77,.03,.24,.08,.43,.16,.56,.9-.74,1.82-1.84,2.75-3.3,.92-1.46,1.84-3.04,2.73-4.73,.89-1.7,1.76-3.39,2.59-5.08,.83-1.69,1.65-3.15,2.4-4.35,.79-1.27,1.53-2.45,2.23-3.46,.7-1.01,1.44-1.89,2.24-2.62,.79-.74,1.67-1.34,2.63-1.81,.96-.47,2.1-.81,3.44-1.02,1.47-.24,2.76-.09,3.86,.46,1.1,.55,2.07,1.34,2.91,2.38,.84,1.04,1.58,2.28,2.22,3.72,.64,1.44,1.22,2.92,1.76,4.42,.58,1.61,1.16,3.08,1.73,4.4,.57,1.32,1.21,2.43,1.93,3.3,.72,.88,1.54,1.52,2.47,1.91,.92,.4,2.04,.47,3.33,.22,1.77-.34,3.41-1.12,4.92-2.34,1.51-1.22,3.1-2.88,4.75-4.98,2.76-3.48,5.01-6.73,6.78-9.76,1.77-3.02,3.36-5.77,4.8-8.24,.12,.11,.35,.18,.7,.21,.35,.03,.57,.22,.65,.56Z"/></g><g><path class="cls-2" d="M289.51,123.27c.01,1.32-.55,2.77-1.64,4.33-.65,.92-1.82,1.69-2.7,2.41-1.73,1.42-3.46,2.81-5.17,4.21-3.12,2.54-6.24,5.02-9.07,7.67-2.79,2.62-5.27,5.35-8.17,7.74-2.4,1.97-4.85,3.73-7.36,5.28-2.52,1.55-5.06,2.85-7.67,3.93s-5.16,1.81-7.69,2.22c-5.93,.96-10.9,.27-15.14-2.12-4.24-2.39-7.42-6.44-9.4-12.42-.63-1.9-1.05-3.91-1.25-6.02-.2-2.12-.17-4.29,.11-6.52,.28-2.23,.83-4.49,1.67-6.77,.84-2.28,1.96-4.56,3.41-6.73,.89-1.34,1.97-2.76,3.17-4.22,1.2-1.47,2.61-2.88,4.23-4.22,1.61-1.35,3.46-2.58,5.53-3.69,2.07-1.11,4.42-1.99,7.02-2.62,1.86-.45,3.59-.57,5.18-.37,1.58,.2,2.96,.62,4.11,1.24,1.15,.62,2.08,1.41,2.76,2.35,.69,.94,1.1,1.92,1.25,2.93,.32,2.13-.12,4.41-1.25,6.84-1.2,2.58-2.89,5.05-5.03,7.62-2.21,2.66-4.87,5.4-7.94,8.25-3.07,2.85-6.45,5.87-10.08,8.82-.49,.4-.99,.81-1.47,1.26-.48,.44-.66,.89-.53,1.33,.27,.96,.71,1.92,1.32,2.9,.61,.98,1.45,1.81,2.51,2.51,1.06,.7,2.36,1.2,3.89,1.5,1.53,.3,3.37,.26,5.52-.12,2.74-.49,5.44-1.31,8.16-2.49,2.72-1.18,5.35-2.62,7.94-4.35,2.58-1.73,5.1-3.69,7.56-5.91,2.47-2.22,19.04-15.3,21.49-17.77,1.35-1.37,2.49-2.07,3.34-2.1,.49-.02,.85,.22,1.07,.7,.23,.48,.34,1.29,.35,2.42Zm-47.82-7.82c-.07-.37-.27-.68-.6-.92-.33-.24-.71-.42-1.13-.54-.43-.11-.87-.18-1.32-.2-.45-.02-.84,.01-1.16,.09-1.99,.47-3.91,1.51-5.73,3.08-1.82,1.57-3.38,3.51-4.67,5.8-1.29,2.29-2.23,4.85-2.84,7.66-.6,2.81-.71,5.7-.35,8.68,.5-.44,1.15-1.06,1.95-1.85,.81-.79,1.68-1.66,2.62-2.6,.94-.94,1.89-1.89,2.84-2.85,.96-.96,1.82-1.84,2.58-2.65,1.67-1.75,3.07-3.28,4.16-4.59,1.09-1.31,1.94-2.48,2.54-3.51,.6-1.03,1.11-1.81,1.26-2.7,.15-.9,.01-1.98-.16-2.9Z"/><path class="cls-1" d="M358.83,141.85c-.16,.57-.43,1.11-.79,1.64-.36,.52-.77,1.04-1.21,1.53-.45,.5-.92,.97-1.43,1.42-.51,.45-.99,.88-1.45,1.29-1.22,1.09-2.57,2.16-4.06,3.22-1.49,1.06-3.03,2.06-4.61,3.01-1.59,.95-3.17,1.82-4.75,2.61-1.58,.79-3.09,1.47-4.53,2.03-1.15,.45-2.24,.86-3.26,1.25-1.02,.39-2.02,.69-3.01,.91-.99,.22-2,.34-3.03,.38-1.03,.03-2.13-.08-3.31-.34-2.27-.5-4.02-1.47-5.29-2.95-.63-.74-1.15-1.64-1.57-2.69-.41-1.06-.75-2.21-1.01-3.45-.26-1.24-.45-2.54-.59-3.9-.13-1.36-.22-2.7-.27-4.01-.06-1.63-.14-3.1-.22-4.4-.08-1.3-.23-2.4-.45-3.31-.21-.91-.53-1.62-.93-2.14-.4-.52-.98-.82-1.71-.89-.58-.06-1.14-.06-1.67,0-.53,.06-1.1,.24-1.7,.53-.6,.29-1.26,.71-1.99,1.28-.72,.56-1.58,1.31-2.55,2.25-.97,.94-2.08,2.09-3.3,3.46-1.23,1.37-2.65,3-4.24,4.89-.78,.92-1.69,1.93-2.71,3.02-1.03,1.09-2.06,2.13-3.1,3.11-1.04,.98-2.04,1.84-3.01,2.58-.97,.74-1.81,1.2-2.54,1.38-2.46-.63-3.73-3.61-3.78-8.99-.01-1.43,.12-3.61,.48-6.51,.16-1.31,.37-2.7,.61-4.15,.24-1.45,.54-2.89,.9-4.34,.37-1.45,.8-2.86,1.29-4.24,.49-1.38,1.07-2.65,1.75-3.83,.32-.55,.66-.98,1.02-1.3,.36-.32,.72-.55,1.09-.71,.37-.15,.76-.25,1.16-.3,.4-.04,.81-.07,1.23-.07,.51,0,.96,.3,1.34,.91,.38,.61,.55,1.45,.51,2.52-.02,.66-.11,1.28-.25,1.85-.14,.58-.34,1.16-.57,1.77-.24,.6-.49,1.25-.76,1.94-.27,.7-.55,1.5-.81,2.39-.21,.73-.43,1.55-.68,2.45-.25,.9-.48,1.81-.7,2.74-.22,.93-.4,1.83-.55,2.71-.15,.88-.23,1.68-.24,2.39,0,.49,.07,1,.24,1.52,.82-.05,2.19-1.15,4.17-3.29,1.02-1.08,2.15-2.28,3.41-3.57,1.25-1.3,2.64-2.73,4.15-4.29,1.12-1.16,2.24-2.25,3.36-3.25,1.12-1,2.28-1.86,3.48-2.58,1.2-.72,2.46-1.27,3.79-1.63,1.32-.36,2.77-.48,4.32-.33,1.64,.16,2.97,.62,3.97,1.39,1,.77,1.75,1.76,2.24,2.98,.49,1.22,.8,2.65,.92,4.28,.12,1.63,.14,3.42,.07,5.35-.06,1.64-.13,3.27-.21,4.88-.08,1.61,.02,3.08,.28,4.42,.27,1.34,.76,2.48,1.49,3.42,.72,.95,1.87,1.58,3.45,1.91,1.21,.26,2.53,.24,3.97-.04,1.44-.28,3-.77,4.7-1.46,1.7-.69,3.5-1.54,5.42-2.55s3.95-2.13,6.1-3.36c.83-.47,1.78-1.1,2.85-1.87,1.07-.77,2.12-1.51,3.16-2.22,1.04-.7,1.99-1.29,2.86-1.75,.87-.46,1.52-.63,1.94-.51,.18,.05,.45,.22,.8,.52,.35,.3,.47,.65,.35,1.07Z"/></g><path class="cls-2" d="M249.1,93.33c-11.32-1.21-21.52,1.33-31.8,6.14-16.27,7.97-28.67,21.7-42.64,32.73-9.83,8.15-20.55,17.5-31.79,23.41-14.29,7.78-30.53,9.89-46.13,3-.19-.08-.35-.21-.53-.32-.23-.09-.48-.15-.75-.15-1.16,0-2.09,.94-2.09,2.09,0,.62,.28,1.16,.71,1.54,.27,.14,.53,.29,.8,.43,1.28,.65,2.58,1.26,3.91,1.8,17.05,6.53,36.07,2.96,51.39-5.87,5.76-3.32,11.29-7.36,16.4-11.61,7.07-5.88,14.02-12.09,21.07-17.98,7.1-5.93,13.36-12.29,20.84-17.74,10.47-7.94,22.34-13.01,35.45-12.99,3.98,.09,5.11-.15,8.49,1.79,6.07,4.32-9.75,20.53-13.08,24.8,0,0,5.15,3.28,5.45,3.81,6.88-8.77,23.29-33.11,4.3-34.87Z"/><path class="cls-1" d="M122.07,128.97c3.51,3.52,6.62,8.14,9.76,11.99,2.57,2.94,5.47,.91,5.34-2.63-.15-4.19-1.73-8.42-2.29-12.67l5.06-.66c.44,1.54,.72,3.56,.94,5.09,.54,3.16,1.07,6.79,.29,10.09-.66,4.41-5.22,7.86-9.61,6.23-3.12-.97-5.02-3.63-7.08-5.8-2.38-2.71-4.76-5.36-6.53-8.65l4.13-2.99h0Z"/></svg>